<?xml version="1.0" encoding="utf-8"?>
<!-- Generator: Adobe Illustrator 26.0.3, SVG Export Plug-In . SVG Version: 6.00 Build 0)  -->
<svg version="1.1"
	 id="svg17" inkscape:version="0.92.4 (5da689c313, 2019-01-14)" sodipodi:docname="42Maru_main_logo.svg" xmlns:cc="http://creativecommons.org/ns#" xmlns:dc="http://purl.org/dc/elements/1.1/" xmlns:inkscape="http://www.inkscape.org/namespaces/inkscape" xmlns:rdf="http://www.w3.org/1999/02/22-rdf-syntax-ns#" xmlns:sodipodi="http://sodipodi.sourceforge.net/DTD/sodipodi-0.dtd" xmlns:svg="http://www.w3.org/2000/svg"
	 xmlns="http://www.w3.org/2000/svg" xmlns:xlink="http://www.w3.org/1999/xlink" x="0px" y="0px" viewBox="0 0 1333.3 1333.3"
	 style="enable-background:new 0 0 1333.3 1333.3;" xml:space="preserve">
<style type="text/css">
	.st0{fill:none;}
	.st1{fill:#1D214F;}
</style>
<sodipodi:namedview  bordercolor="#666666" borderopacity="1" gridtolerance="10" guidetolerance="10" id="namedview19" inkscape:current-layer="g25" inkscape:cx="1837.3255" inkscape:cy="198.57255" inkscape:pageopacity="0" inkscape:pageshadow="2" inkscape:window-height="1271" inkscape:window-maximized="1" inkscape:window-width="2400" inkscape:window-x="2391" inkscape:window-y="-9" inkscape:zoom="0.28039543" objecttolerance="10" pagecolor="#ffffff" showgrid="false">
	</sodipodi:namedview>
<g>
	<rect class="st0" width="1333.3" height="1333.3"/>
	<g id="g29">
		<g id="g35" transform="translate(698.7549,481.6201)">
			<path id="path37" inkscape:connector-curvature="0" class="st1" d="M232.9,209.6c19-23.9,34.7-50.2,46.7-78.6
				c17.6-41.7,26.6-86,26.6-131.7c0-45.7-9-90-26.6-131.7c-17-40.3-41.4-76.5-72.5-107.5c-31-31.1-67.2-55.4-107.5-72.5
				c-41.7-17.6-86.1-26.6-131.7-26.6c-45.6,0-90,9-131.7,26.6c-40.3,17.1-76.5,41.4-107.5,72.5c-31.1,31.1-55.4,67.2-72.5,107.5
				c-17.6,41.7-26.6,86-26.6,131.7c0,45.7,9,90,26.6,131.7c17,40.3,41.4,76.5,72.5,107.5c31,31.1,67.2,55.4,107.5,72.5
				c41.7,17.7,86,26.6,131.7,26.6c45.6,0,90-9,131.7-26.6c21.7-9.2,42.2-20.5,61.4-33.8c0,0,0.1-0.1,0.2-0.1
				c0.4-0.3,0.7-0.5,1.1-0.7l0,0c5.8-4.4,9.5-11.4,9.5-19.2c0-13.3-10.8-24.2-24.2-24.2c-5.5,0-10.6,1.9-14.7,5l0,0
				C86,270.2,29.2,289.2-32.1,289.2c-81.1,0-154.4-33.3-207-86.9c-11.5-11.7-22-24.4-31.4-37.9C-303,117.5-322.1,60.6-322.1-0.8
				c0-160.1,129.8-290,290-290c160.1,0,290,129.8,290,290c0,63.7-20.6,122.6-55.4,170.5L-1.6-97.2L-32.1-137l-30.4,39.8
				l-177.9,232.6c-3,4-4.8,9-4.8,14.5c0,13.3,10.8,24.2,24.2,24.2c7.9,0,15-3.8,19.4-9.7L-32.1-57.4L262.7,328
				c4.4,5.9,11.4,9.7,19.4,9.7c13.3,0,24.2-10.8,24.2-24.2c0-5.4-1.8-10.4-4.8-14.5L232.9,209.6z"/>
		</g>
		<g id="g39" transform="translate(431.5918,285.5029)">
			<path id="path41" inkscape:connector-curvature="0" class="st1" d="M143.9,667.2L143.9,667.2l-77.6,77.6l-77.6-77.6v0l-33-32.9
				v46.6h0v224.4h33V713.8l54.7,54.7l0,0L65.9,791v0.8l0.4-0.4l0.4,0.4V791l22.5-22.5l0,0l54.6-54.7v191.5h33V680.8v-46.6
				L143.9,667.2z"/>
		</g>
		<g id="g43" transform="translate(992.2002,310.4336)">
			<path id="path45" inkscape:connector-curvature="0" class="st1" d="M330.7,609v176.9c0,22.7-8.1,43.6-21.5,59.9
				c-1,1.2-1.9,2.3-3,3.4c-1,1.1-2,2.2-3.1,3.3c-0.9,0.9-1.9,1.8-2.8,2.7c-0.3,0.3-0.6,0.6-0.9,0.8c-0.5,0.5-1.1,1-1.6,1.4
				c-0.4,0.4-0.9,0.7-1.3,1.1c-5.8,4.8-12.2,9-19.1,12.2c-1.2,0.6-2.4,1.2-3.6,1.6c-0.2,0.1-0.4,0.2-0.6,0.2
				c-1.4,0.6-2.8,1.2-4.3,1.7c-4.3,1.6-8.7,2.8-13.3,3.8c-0.1,0-0.2,0-0.3,0.1c-6.1,1.2-12.4,1.9-18.8,1.9c-6.5,0-12.8-0.7-19-1.9
				c-3.1-0.6-6.1-1.4-9-2.3c-7.4-2.3-14.3-5.4-20.8-9.4c-1.3-0.8-2.6-1.6-3.8-2.5c-2.5-1.7-4.9-3.5-7.2-5.4
				c-0.4-0.3-0.9-0.7-1.3-1.1c-0.3-0.3-0.7-0.5-1-0.9c-0.7-0.6-1.4-1.2-2.1-1.9c-0.5-0.5-1-0.9-1.5-1.4c-0.6-0.5-1.1-1-1.6-1.6
				c-0.6-0.5-1.1-1.1-1.6-1.6c-0.7-0.7-1.4-1.5-2-2.2c-0.5-0.5-0.9-1-1.4-1.6c-1.5-1.8-2.9-3.6-4.3-5.5c-0.6-0.7-1.1-1.5-1.6-2.2
				c-1.7-2.5-3.3-5.1-4.7-7.7c-0.5-0.9-0.9-1.7-1.3-2.6c-0.4-0.7-0.8-1.5-1.1-2.3c-0.5-1.1-1-2.3-1.5-3.4c-0.6-1.4-1.2-2.8-1.7-4.3
				c-0.5-1.3-1-2.7-1.4-4.1c-0.1-0.3-0.2-0.5-0.2-0.7c-0.4-1.3-0.8-2.7-1.1-4c-0.4-1.4-0.7-2.7-0.9-4c-0.1-0.4-0.2-0.8-0.3-1.2
				c-0.2-1.3-0.5-2.7-0.7-4c-0.3-1.6-0.4-3.1-0.6-4.7c-0.1-1.4-0.3-2.9-0.3-4.3c0-0.3,0-0.5,0-0.8c-0.1-1.5-0.1-3-0.1-4.5V609h33
				v176.9c0,33.8,27.4,61.2,61.2,61.2c33.7,0,61.2-27.4,61.2-61.2V609H330.7z"/>
		</g>
		<g id="g47" transform="translate(187.731,131.6367)">
			<path id="path49" inkscape:connector-curvature="0" class="st1" d="M62.6,1026.2l65.4-99.8l18-27.4l0,0c0-0.1,0.1-0.1,0.1-0.2
				c7.4-11.2,11.6-24.6,11.6-39.1c0-39.5-32-71.6-71.6-71.6c-25,0-47,12.8-59.8,32.2c-6.2,9.3-10.2,20.2-11.4,31.9l0.1,0l32.7,3.4
				c0.6-6.3,2.8-12.2,6.2-17.3c6.9-10.4,18.8-17.3,32.2-17.3c21.3,0,38.6,17.3,38.6,38.6c0,7.7-2.3,15-6.2,21l-18,27.6l-15,22.9h0
				l-62.3,95l-21.6,33H41h125.6v-33H62.6z"/>
		</g>
		<g id="g51" transform="translate(698.8223,222.2725)">
			<path id="path53" inkscape:connector-curvature="0" class="st1" d="M232.9,814.7v-84.3h94.9c23.2,0,42,18.8,42,42
				c0,23.2-18.8,42.3-42,42.3H232.9z M350.8,843.8c16-5.1,29.6-15.5,38.9-29.1c8.3-12,13.1-26.6,13.1-42.3c0-15.6-4.7-30-12.8-42
				c-13.5-19.9-36.3-32.9-62.1-32.9H200v271.1h32.9V847.7h83.8l50,120.7h35.7l-50-120.7L350.8,843.8z"/>
		</g>
		<g id="g55" transform="translate(53.5645,190.8437)">
			<path id="path57" inkscape:connector-curvature="0" class="st1" d="M17.9,888l32.5-49.6V888H17.9z M83.3,888V728.9h-0.5
				l-32.5,49.5L-21.5,888L-43.2,921h93.5v79h33v-79h32.8V888H83.3z"/>
		</g>
		<g id="g59" transform="translate(649.3994,106.9961)">
			<path id="path61" inkscape:connector-curvature="0" class="st1" d="M216.5,1083.7h-35.7l-76.5-184.8l-76.6,184.8H-8l94.4-227.9v0
				l17.8-43.1l17.8,43.1L216.5,1083.7z"/>
		</g>
	</g>
</g>
</svg>
