<svg id="레이어_1" data-name="레이어 1" xmlns="http://www.w3.org/2000/svg" viewBox="0 0 936.7 347.8"><defs><style>.cls-1{fill:#cf000e;}.cls-2{fill:#fdffff;}</style></defs><title>dlight-logo-white</title><polygon class="cls-1" points="794.9 58.7 827.8 1.7 860.6 58.7 794.9 58.7"/><polygon class="cls-1" points="794.9 187.2 827.8 130.2 860.6 187.2 794.9 187.2"/><polygon class="cls-1" points="794.9 64.3 827.8 121.2 860.6 64.3 794.9 64.3"/><polygon class="cls-1" points="870.9 58.7 903.8 1.7 936.7 58.7 870.9 58.7"/><polygon class="cls-1" points="870.9 64.3 903.8 121.2 936.7 64.3 870.9 64.3"/><polygon class="cls-1" points="756.9 0 789.8 56.9 822.6 0 756.9 0"/><polygon class="cls-1" points="832.9 0 865.8 56.9 898.7 0 832.9 0"/><polygon class="cls-1" points="832.9 122.9 865.8 66 898.7 122.9 832.9 122.9"/><polygon class="cls-1" points="832.9 128.5 865.8 185.4 898.7 128.5 832.9 128.5"/><path class="cls-2" d="M26.1,116.2H56.7a44,44,0,0,1,0,88H26.1ZM56.7,90.1H0V230.3H56.7a70.1,70.1,0,0,0,0-140.2"/><polygon class="cls-2" points="230.3 90.1 204.2 90.1 204.2 230.3 304.1 230.3 304.1 204.2 230.3 204.2 230.3 90.1"/><rect class="cls-2" x="330" y="90.1" width="26.1" height="140.2"/><path class="cls-2" d="M444.6,172.6h33.5V193a44.82,44.82,0,1,1,.9-64.7l2.1,2,18.2-17.4-2.2-2.2a69.33,69.33,0,0,0-49.6-20.6,70.1,70.1,0,1,0,56.1,112.2l.6-.8v-55H444.5v26.1Z"/><polygon class="cls-2" points="617.3 147.1 556.2 147.1 556.2 90.1 530.1 90.1 530.1 230.3 556.2 230.3 556.2 173.2 617.3 173.2 617.3 230.3 643.4 230.3 643.4 90.1 617.3 90.1 617.3 147.1"/><polygon class="cls-2" points="669.2 90.1 669.2 116.2 712.8 116.2 712.8 230.3 739 230.3 739 116.2 782.6 116.2 782.6 90.1 669.2 90.1"/><polygon class="cls-2" points="187.2 90.1 156 90.1 135.2 121.3 166.4 121.3 187.2 90.1"/><path class="cls-2" d="M43.9,333.1H13.6v8.3H43.8v-8.3Zm0-12.3H49v24.9H8.5V320.8h5.1v8.1H43.8v-8.1ZM23.4,300.4H5.1v10.5H23.4ZM49,282.8v34.9H43.8V303H28.4v12.2H0v-29H5.1v10H23.4V286.1h5.1v12.5H43.9V282.8Z"/><path class="cls-2" d="M107.5,290.7H74.7V307h32.7V290.7Zm5,20.4H69.7V286.4h42.9v24.7Zm7.6,13.4H93.6v22.2H88.4V324.5H62.2v-4.3h57.9Z"/><path class="cls-2" d="M174.9,333.1H144.7v8.3h30.2Zm0-12.3H180v24.9H139.5V320.8h5.1v8.1h30.2v-8.1Zm-20.4-20.4H136.2v10.5h18.3Zm25.7-17.6v34.9H175V303H159.6v12.2H131.1v-29h5.1v10h18.3V286.1h5.1v12.5H175V282.8Z"/><path class="cls-2" d="M245.6,329.7h-5.2V283h5.2Zm1.9,11.2v4.3H204.8V324.8h5.1v16.1Zm-36.1-26.8c6.6,0,11.5-4.6,11.5-11.1s-4.9-11.1-11.5-11.1S200,296.5,200,303s4.9,11.1,11.4,11.1m0,4.5c-9.4,0-16.5-6.4-16.5-15.6s7-15.6,16.5-15.6,16.5,6.4,16.5,15.6-7,15.6-16.5,15.6"/><path class="cls-2" d="M328.7,347.8h-9.4V281.9h9.4Zm-41.1-23.5c11.5-.1,18.8-.4,26.7-1.9l.8,7.8c-8.9,1.7-17.3,2-31.2,2h-5.8V287.9H310v7.6H287.7v28.8Z"/><path class="cls-2" d="M400.3,313.7h-9.9V347H383V282.4h7.4v25.2h9.9Zm-50,12c10.6-.1,18.6-.5,27.7-2.1l.8,6c-9.9,1.8-18.5,2.2-30.4,2.2H343V306.3h22v-12H342.8v-6h29.4v23.9h-22v13.5Z"/><path class="cls-2" d="M458.9,347.1h-7.4V282.5h7.4Zm-43.7-37.2c0,10.1,3.9,16.2,9.5,16.2s9.5-6.1,9.5-16.2-3.9-16-9.5-16-9.5,6-9.5,16m26.1,0c0,14-7,22.7-16.6,22.7s-16.5-8.8-16.5-22.7,7-22.7,16.5-22.7,16.6,8.9,16.6,22.7"/><path class="cls-2" d="M523.4,322.5H478.8V287.8h44.1v5.9H486.3V302h35.2v5.8H486.3v8.8h37.1v5.9Zm6.5,16.5H471.5v-6h58.4Z"/></svg>