<svg id="icon_language_32x32" xmlns="http://www.w3.org/2000/svg" width="32" height="32" viewBox="0 0 32 32">
  <path id="패스_1" data-name="패스 1" d="M0,0H32V32H0Z" fill="none"/>
  <path id="패스_2" data-name="패스 2" d="M15.986,2A14,14,0,1,0,30,16,13.993,13.993,0,0,0,15.986,2Zm9.7,8.4h-4.13a21.909,21.909,0,0,0-1.932-4.984A11.242,11.242,0,0,1,25.688,10.4ZM16,4.856A19.721,19.721,0,0,1,18.674,10.4H13.326A19.721,19.721,0,0,1,16,4.856ZM5.164,18.8a10.951,10.951,0,0,1,0-5.6H9.9A23.122,23.122,0,0,0,9.7,16a23.122,23.122,0,0,0,.2,2.8Zm1.148,2.8h4.13a21.909,21.909,0,0,0,1.932,4.984A11.182,11.182,0,0,1,6.312,21.6Zm4.13-11.2H6.312a11.182,11.182,0,0,1,6.062-4.984A21.909,21.909,0,0,0,10.442,10.4ZM16,27.144A19.721,19.721,0,0,1,13.326,21.6h5.348A19.721,19.721,0,0,1,16,27.144ZM19.276,18.8H12.724A20.6,20.6,0,0,1,12.5,16a20.419,20.419,0,0,1,.224-2.8h6.552A20.419,20.419,0,0,1,19.5,16,20.6,20.6,0,0,1,19.276,18.8Zm.35,7.784A21.909,21.909,0,0,0,21.558,21.6h4.13A11.242,11.242,0,0,1,19.626,26.584ZM22.1,18.8a23.122,23.122,0,0,0,.2-2.8,23.122,23.122,0,0,0-.2-2.8h4.732a10.951,10.951,0,0,1,0,5.6Z" fill="#fff"/>
</svg>
